# xmcd
#
# Track frame offsets: 
#        150
#        24097
#        40395
#        57695
#        72017
#        92237
#        116010
#        136375
#        162130
#        182132
#        200577
#        216042
#        229102
#        244955
#
# Disc length: 3636 seconds
#
# Revision: 1
# Processed by: cddbd v1.5.2PL0 Copyright (c) Steve Scherf et al.
# Submitted via: ExactAudioCopy v0.99pb5
#
DISCID=c90e320e
DTITLE=Palermo Boogie Gang - Botle Up And Go
DYEAR=1994
DGENRE=Blues
TTITLE0=I love You Honey
TTITLE1=When Her Mama And Her Papa And Her Elder Sister Have All Gone
TTITLE2=My Love's Zydeco
TTITLE3=Key to the Highway
TTITLE4=Tell Me Mama
TTITLE5=Walking Down Blues
TTITLE6=I Missed You Baby
TTITLE7=Robert's Sunrise
TTITLE8=The Sky Is Crying
TTITLE9=Oh, Oh, Hugh
TTITLE10=Rockin' Chair Boogie
TTITLE11=The Bourgeois Blues
TTITLE12=Palermo Boogie
TTITLE13=Special Rider
EXTD=
EXTT0=
EXTT1=
EXTT2=
EXTT3=
EXTT4=
EXTT5=
EXTT6=
EXTT7=
EXTT8=
EXTT9=
EXTT10=
EXTT11=
EXTT12=
EXTT13=
PLAYORDER=
